<?xml version="1.0" encoding="UTF-8" standalone="no"?>
<svg
   xmlns:dc="http://purl.org/dc/elements/1.1/"
   xmlns:cc="http://creativecommons.org/ns#"
   xmlns:rdf="http://www.w3.org/1999/02/22-rdf-syntax-ns#"
   xmlns:svg="http://www.w3.org/2000/svg"
   xmlns="http://www.w3.org/2000/svg"
   xmlns:sodipodi="http://sodipodi.sourceforge.net/DTD/sodipodi-0.dtd"
   xmlns:inkscape="http://www.inkscape.org/namespaces/inkscape"
   version="1.1"
   x="0px"
   y="0px"
   viewBox="0 0 1000 1000"
   enable-background="new 0 0 1000 1000"
   xml:space="preserve"
   id="svg20"
   sodipodi:docname="0ca96a68829da4b546dfb8bbe926ddcf.svg"
   inkscape:version="1.0.1 (3bc2e813f5, 2020-09-07)"><defs
   id="defs24" /><sodipodi:namedview
   pagecolor="#ffffff"
   bordercolor="#666666"
   borderopacity="1"
   objecttolerance="10"
   gridtolerance="10"
   guidetolerance="10"
   inkscape:pageopacity="0"
   inkscape:pageshadow="2"
   inkscape:window-width="1920"
   inkscape:window-height="1001"
   id="namedview22"
   showgrid="false"
   inkscape:zoom="0.58689863"
   inkscape:cx="258.50529"
   inkscape:cy="519.83467"
   inkscape:window-x="-9"
   inkscape:window-y="-9"
   inkscape:window-maximized="1"
   inkscape:current-layer="svg20" />
<metadata
   id="metadata2"> Svg Vector Icons : http://www.onlinewebfonts.com/icon <rdf:RDF><cc:Work
     rdf:about=""><dc:format>image/svg+xml</dc:format><dc:type
       rdf:resource="http://purl.org/dc/dcmitype/StillImage" /></cc:Work></rdf:RDF></metadata>
<g
   id="g18"
   style="fill:#ffffff;fill-opacity:1"><path
     d="M386.6,561.2c-39,17.1-74.1,40.2-100.3,74.1c-14.2,18.4-14.9,39.4-4.6,60.1c9.9,20,26.6,30.8,49.1,32.6c22.3,1.8,38.8-8.4,54-23.4c54.2-53.6,137-62.8,201.4-22.5L446.9,543C425.1,546.9,405.6,552.9,386.6,561.2z"
     id="path4"
     style="fill:#ffffff;fill-opacity:1" /><path
     d="M822.1,463.2c-91.6-81.4-198.6-123.5-331.3-125c-12.3,1.1-34,2.1-55.6,4.9c-1.3,0.2-2.6,0.4-4,0.6l117.5,117.5c58.2,8.1,114.7,30.6,163.4,67.2c18.6,14,35.7,30.2,54.6,43.9c18.1,13.2,47.3,11.1,66.1-2.7c18.8-13.8,27.8-39.4,22.9-60.9C851.1,488.4,836.6,476,822.1,463.2z"
     id="path6"
     style="fill:#ffffff;fill-opacity:1" /><path
     d="M382,478.1l-91.6-91.6c-46.4,22.7-88.9,53.2-127.9,90.6c-35.1,33.8-22.9,86.5,22.9,101.2c22.6,7.2,42.3,0,60.3-14.7c22.8-18.6,45.1-38.2,70-53.7C337,496.8,359.2,486.2,382,478.1z"
     id="path8"
     style="fill:#ffffff;fill-opacity:1" /><path
     d="M500.1,744.9c-39.8-0.3-72.6,32.5-72.3,72.1c0.4,39.7,32.4,71.1,72.2,70.9c39.8-0.1,71.8-31.9,71.8-71.4C571.9,777.2,539.9,745.2,500.1,744.9z"
     id="path10"
     style="fill:#ffffff;fill-opacity:1" /><path
     d="M969.3,325c-131.9-123.4-289-184.3-488.4-186.5c-20.2,2.1-59,4.4-97.1,10.6c-40.7,6.6-79.8,16.6-117.2,29.9l96.1,96.1c20.5-5,41.4-8.8,63-11.6c91.6-11.7,181-2.6,267.9,28.7c71.6,25.8,134.7,65.2,190,117.1c14.8,13.9,31.8,22.5,52.3,20c24.6-3,42.3-16.2,50.4-39.8C994.9,364.5,988.2,342.7,969.3,325z"
     id="path12"
     style="fill:#ffffff;fill-opacity:1" /><path
     d="M142.6,238.6c-39.2,24.3-76.3,53-111.1,85.9c-8.7,8.2-15.8,19.9-19.1,31.3c-7.8,26.8,4.4,52.7,28.4,66.4c22.8,13.1,51.8,9,73.2-11c36.1-33.8,74.9-62.2,116.3-84.9L142.6,238.6z"
     id="path14"
     style="fill:#ffffff;fill-opacity:1" /><path
     d="M184.6,125.2c-17.6-17.6-46-17.5-63.5,0c-17.5,17.5-17.5,46,0,63.5l527.4,527.4c17.6,17.6,46,17.6,63.5,0c17.5-17.5,17.5-46,0-63.5L184.6,125.2z"
     id="path16"
     style="fill:#ffffff;fill-opacity:1" /></g>
</svg>
